HIERARCHY
ROOT Hips
{
	OFFSET 0.000000 0.000000 0.000000
	CHANNELS 6 Xposition Yposition Zposition Zrotation Yrotation Xrotation 
	JOINT LeftUpLeg_virtual
	{
		OFFSET 0.000000 0.000000 0.000000
		CHANNELS 3 Zrotation Yrotation Xrotation
		JOINT LeftUpLeg
		{
			OFFSET 10.205400 -3.823500 0.155100
			CHANNELS 3 Zrotation Yrotation Xrotation
			JOINT LeftLeg
			{
				OFFSET 0.708757 -12.982077 0.567790
				CHANNELS 3 Zrotation Yrotation Xrotation
				JOINT LeftFoot
				{
					OFFSET -0.708756 -10.717838 -2.184338
					CHANNELS 3 Zrotation Yrotation Xrotation
					JOINT LeftToeBase
					{
						OFFSET 0.108149 -7.191104 7.560241
						CHANNELS 3 Zrotation Yrotation Xrotation
						End Site
						{
							OFFSET 0.000000 0.000000 0.000000
						}
					}
				}
			}
		}
	}
	JOINT RightUpLeg_virtual
	{
		OFFSET 0.000000 0.000000 0.000000
		CHANNELS 3 Zrotation Yrotation Xrotation
		JOINT RightUpLeg
		{
			OFFSET -10.205400 -3.823500 0.005500
			CHANNELS 3 Zrotation Yrotation Xrotation
			JOINT RightLeg
			{
				OFFSET -0.708756 -12.982134 0.610632
				CHANNELS 3 Zrotation Yrotation Xrotation
				JOINT RightFoot
				{
					OFFSET 0.708754 -10.717769 -1.945823
					CHANNELS 3 Zrotation Yrotation Xrotation
					JOINT RightToeBase
					{
						OFFSET -0.108140 -7.191069 7.372968
						CHANNELS 3 Zrotation Yrotation Xrotation
						End Site
						{
							OFFSET 0.000000 0.000000 0.000000
						}
					}
				}
			}
		}
	}
	JOINT Spine_virtual
	{
		OFFSET 0.000000 0.000000 0.000000
		CHANNELS 3 Zrotation Yrotation Xrotation
		JOINT Spine
		{
			OFFSET 0.000000 6.876099 0.125700
			CHANNELS 3 Zrotation Yrotation Xrotation
			JOINT Spine1
			{
				OFFSET 0.000000 8.022060 0.146608
				CHANNELS 3 Zrotation Yrotation Xrotation
				JOINT Spine2
				{
					OFFSET 0.000000 9.168068 0.167552
					CHANNELS 3 Zrotation Yrotation Xrotation
					JOINT Neck_virtual
					{
						OFFSET 0.000000 0.000000 0.000000
						CHANNELS 3 Zrotation Yrotation Xrotation
						JOINT Neck
						{
							OFFSET 0.000000 10.314075 0.188496
							CHANNELS 3 Zrotation Yrotation Xrotation
							JOINT Head
							{
								OFFSET 0.000000 7.643700 -2.377400
								CHANNELS 3 Zrotation Yrotation Xrotation
								End Site
								{
									OFFSET 0.000000 0.000000 0.000000
								}
							}
						}
					}
					JOINT LeftShoulder_virtual
					{
						OFFSET 0.000000 0.000000 0.000000
						CHANNELS 3 Zrotation Yrotation Xrotation
						JOINT LeftShoulder
						{
							OFFSET 4.392200 8.824978 0.174984
							CHANNELS 3 Zrotation Yrotation Xrotation
							JOINT LeftArm
							{
								OFFSET 8.771219 -2.981674 -0.026999
								CHANNELS 3 Zrotation Yrotation Xrotation
								JOINT LeftForeArm
								{
									OFFSET 8.512804 0.000000 -0.000000
									CHANNELS 3 Zrotation Yrotation Xrotation
									JOINT LeftHand
									{
										OFFSET 18.484802 0.000000 -0.000000
										CHANNELS 3 Zrotation Yrotation Xrotation
										End Site
										{
											OFFSET 0.000000 0.000000 0.000000
										}
									}
								}
							}
						}
					}
					JOINT RightShoulder_virtual
					{
						OFFSET 0.000000 0.000000 0.000000
						CHANNELS 3 Zrotation Yrotation Xrotation
						JOINT RightShoulder
						{
							OFFSET -4.392200 8.824993 0.141379
							CHANNELS 3 Zrotation Yrotation Xrotation
							JOINT RightArm
							{
								OFFSET -8.771282 -2.981682 -0.094208
								CHANNELS 3 Zrotation Yrotation Xrotation
								JOINT RightForeArm
								{
									OFFSET -8.494598 0.000000 0.000000
									CHANNELS 3 Zrotation Yrotation Xrotation
									JOINT RightHand
									{
										OFFSET -18.483803 0.000000 0.000001
										CHANNELS 3 Zrotation Yrotation Xrotation
										End Site
										{
											OFFSET 0.000000 0.000000 0.000000
										}
									}
								}
							}
						}
					}
				}
			}
		}
	}
}
MOTION
Frames: 8
Frame Time: 0.033333
6.232234 36.428429 11.549294 179.920078 10.218451 179.898686 -2.336433 -2.903168 10.190714 -9.576465 -0.028076 -17.442322 13.538575 6.523337 17.367271 -2.103975 -1.564838 5.300923 0.000000 0.000000 0.000000 1.357037 -2.201281 7.720225 1.258422 7.352781 -16.889902 -6.800416 1.819268 14.445010 6.945216 2.124049 12.786259 0.000000 0.000000 0.000000 0.028853 0.207727 -2.619992 -2.281941 2.598893 -7.589016 0.761491 -2.625518 5.015112 0.001648 -0.000210 0.017956 0.405270 -0.822249 6.789467 1.623008 -11.689317 25.031209 0.000000 0.000000 0.000000 1.560695 -0.075879 3.558152 -9.574953 -10.360355 -0.250729 -52.818963 16.157487 29.099553 1.858389 -40.629858 1.178820 0.000000 0.000000 0.000000 -1.809564 1.095416 2.633053 6.092293 -2.381981 -12.909179 14.171265 31.135762 -47.176803 -173.474893 59.434442 -172.830834 0.000000 0.000000 0.000000 
6.233308 36.433922 11.486549 179.940268 10.771867 179.921362 -2.383116 -2.822980 10.193553 -9.816993 0.135346 -17.325330 14.089437 6.549457 17.529916 -2.314785 -1.629618 5.124917 0.000000 0.000000 0.000000 1.336264 -2.060630 7.705627 1.149719 7.428012 -16.741536 -6.456337 2.030857 14.232371 6.829705 2.070838 13.012858 0.000000 0.000000 0.000000 -0.012513 0.212365 -2.692933 -2.243943 2.557558 -7.725735 0.783263 -2.567318 5.072093 0.037576 0.021068 -0.012525 0.340443 -0.709486 6.915108 1.613091 -11.867060 25.083212 0.000000 0.000000 0.000000 1.499837 -0.033363 3.681599 -9.464813 -9.848842 -0.458852 -55.464756 18.580024 27.653694 1.987821 -39.896764 0.939876 0.000000 0.000000 0.000000 -1.882200 1.210645 2.759952 5.848854 -2.530010 -12.850280 14.690272 31.279691 -47.003470 -173.102935 59.509539 -172.370957 0.000000 0.000000 0.000000 
6.245285 36.442776 11.415819 179.907661 11.197385 179.898700 -2.514353 -2.853963 10.236751 -9.896152 0.147889 -17.159544 14.432249 6.572811 17.796210 -2.296421 -1.341201 4.885789 0.000000 0.000000 0.000000 1.279181 -1.990266 7.609110 1.083863 7.189613 -16.675905 -6.322312 1.788700 14.227164 7.108913 2.220145 13.119528 0.000000 0.000000 0.000000 -0.122028 0.193185 -2.829436 -2.255286 2.559533 -7.857503 0.803397 -2.474582 5.168562 0.020931 0.066873 -0.000425 0.377456 -0.672326 7.031436 1.588988 -12.056935 25.139785 0.000000 0.000000 0.000000 1.557686 0.009412 3.794927 -9.195020 -9.333894 -0.710878 -57.810557 20.810203 26.216957 2.071653 -39.879023 0.764395 0.000000 0.000000 0.000000 -1.841708 1.182490 2.913051 5.662407 -2.609112 -12.740861 15.150517 31.401856 -46.795518 -172.800781 59.546600 -171.853488 0.000000 0.000000 0.000000 
6.261592 36.450619 11.340658 179.931648 11.487342 179.927810 -2.612595 -3.015285 10.259218 -9.899916 0.254995 -17.054204 14.603697 6.501042 18.092386 -1.970359 -1.301717 4.629537 0.000000 0.000000 0.000000 1.251997 -2.072837 7.567605 1.058680 6.956798 -16.577813 -6.231529 1.309677 14.261187 7.470332 2.463633 13.203864 0.000000 0.000000 0.000000 -0.199374 0.057442 -3.011238 -2.244507 2.495136 -8.006182 0.866897 -2.445508 5.297911 0.023073 0.039641 0.012781 0.405372 -0.585482 7.259827 1.567794 -12.215349 25.256113 0.000000 0.000000 0.000000 1.595597 0.103426 3.996912 -8.843102 -8.851069 -0.910600 -59.725162 22.719880 25.226636 2.128281 -40.321738 0.657110 0.000000 0.000000 0.000000 -1.778382 1.355339 3.083075 5.582413 -2.855304 -12.723594 15.664078 31.429611 -46.536736 -172.688916 59.591871 -171.786703 0.000000 0.000000 0.000000 
6.276520 36.456425 11.267732 179.883496 11.559619 179.980908 -2.786384 -3.256590 10.260590 -9.932076 0.343826 -17.009633 14.792557 6.277665 18.342106 -1.849798 -1.194340 4.359383 0.000000 0.000000 0.000000 1.174612 -2.276341 7.469765 0.972311 6.867082 -16.603416 -6.241592 0.804925 14.363485 7.818018 2.678174 13.213494 0.000000 0.000000 0.000000 -0.380815 0.008631 -3.246743 -2.295426 2.458975 -8.162547 0.963905 -2.388770 5.421499 0.027463 0.046262 -0.000071 0.515630 -0.569352 7.509928 1.582919 -12.373869 25.344522 0.000000 0.000000 0.000000 1.702545 0.057334 4.259190 -8.508649 -8.619862 -1.028095 -61.178660 23.977825 24.831713 2.264119 -40.899432 0.489943 0.000000 0.000000 0.000000 -1.699327 1.331490 3.291964 5.517439 -3.059918 -12.682749 16.065266 31.421705 -46.067758 -172.391557 59.606965 -171.416438 0.000000 0.000000 0.000000 
6.278858 36.458221 11.199112 179.923384 11.861937 179.864945 -2.826239 -3.206482 10.311069 -9.945131 0.390399 -16.907303 14.983232 6.128929 18.712085 -1.815451 -1.144276 4.107619 0.000000 0.000000 0.000000 1.235236 -2.254825 7.462028 0.944443 6.788015 -16.482401 -6.204881 0.639992 14.614368 8.067092 2.861592 13.104615 0.000000 0.000000 0.000000 -0.431149 -0.298134 -3.362325 -2.304130 2.491005 -8.244843 1.042274 -2.260859 5.571184 0.033352 0.142045 -0.000031 0.561329 -0.444070 7.682131 1.591882 -12.444246 25.446257 0.000000 0.000000 0.000000 1.812680 0.211477 4.361415 -8.207557 -8.419756 -1.204148 -62.075751 24.765018 24.773994 2.213678 -41.369575 0.466937 0.000000 0.000000 0.000000 -1.624346 1.412043 3.515744 5.488384 -3.047418 -12.739099 16.346202 31.392779 -45.933569 -172.525879 59.618133 -171.456886 0.000000 0.000000 0.000000 
6.273839 36.457901 11.141417 179.904519 11.897880 179.942194 -2.952314 -3.391779 10.359695 -10.004371 0.360396 -17.051419 15.217916 5.951289 19.104374 -1.753622 -1.044839 3.921473 0.000000 0.000000 0.000000 1.179913 -2.384424 7.389566 0.869423 6.766586 -16.570316 -6.188859 0.440306 14.735819 8.293329 2.921923 13.131204 0.000000 0.000000 0.000000 -0.581166 -0.256990 -3.586623 -2.354418 2.419016 -8.394271 1.127502 -2.225397 5.669670 0.034693 0.093430 -0.019788 0.629112 -0.377721 7.912009 1.572585 -12.530164 25.502543 0.000000 0.000000 0.000000 1.877669 0.229604 4.660066 -8.068551 -8.497571 -1.371576 -62.652130 24.917336 24.782512 1.976594 -41.610366 0.639903 0.000000 0.000000 0.000000 -1.527763 1.472294 3.688846 5.436321 -3.261853 -12.692365 16.458261 31.369771 -45.698863 -172.428959 59.598974 -171.271542 0.000000 0.000000 0.000000 
6.252596 36.454735 11.098112 179.872963 12.028978 179.938287 -3.067394 -3.427466 10.393750 -10.088562 0.277904 -17.115911 15.391824 5.841063 19.382368 -1.687255 -0.941702 3.758189 0.000000 0.000000 0.000000 1.127641 -2.393920 7.361940 0.795658 6.739667 -16.602660 -6.214157 0.393594 14.967735 8.464481 2.950587 13.040256 0.000000 0.000000 0.000000 -0.690699 -0.163035 -3.742142 -2.394993 2.346553 -8.480687 1.161281 -2.237599 5.784201 0.002582 0.040777 0.019102 0.754682 -0.367145 7.970916 1.614551 -12.538597 25.594133 0.000000 0.000000 0.000000 1.977522 0.288810 4.635781 -8.028423 -8.578852 -1.440919 -62.965130 24.688875 24.842180 1.992896 -41.777036 0.526925 0.000000 0.000000 0.000000 -1.421610 1.579098 3.762495 5.386245 -3.225147 -12.792501 16.447174 31.464947 -45.756564 -172.509746 59.538172 -171.265136 0.000000 0.000000 0.000000 
